<svg version="1.2" xmlns="http://www.w3.org/2000/svg" viewBox="0 0 1024 1024" width="1024" height="1024">
  <defs>
    <!-- One gradient for everything: top-left (#D352AC) to bottom-right (#FC5F6C) -->
    <linearGradient id="grad" x1="0" y1="0" x2="1024" y2="1024" gradientUnits="userSpaceOnUse">
      <stop offset="0%" stop-color="#D352AC"/>
      <stop offset="100%" stop-color="#FC5F6C"/>
    </linearGradient>
  </defs>

  <style>
    /* Use the same gradient for stroke and fill so all paths share one continuous sweep */
    .s0 { fill: none; stroke: url(#grad); stroke-linecap: round; stroke-linejoin: round; stroke-width: 25 }
    .s1 { fill: url(#grad) }
  </style>

  <g id="Layer copy 10">
    <!-- Filled rounded square at bottom right -->
    <path class="s1" d="m797.21 751.57h45.63l4.21 0.2 4.17 0.58 4.11 0.96 3.99 1.34 3.86 1.71 3.68 2.05 3.48 2.38 3.24 2.69 2.98 2.98 2.69 3.24 2.39 3.48 2.05 3.68 1.7 3.86 1.34 4 0.96 4.1 0.59 4.17 0.19 4.21v45.64l-0.19 4.21-0.59 4.17-0.96 4.11-1.34 3.99-1.7 3.86-2.05 3.68-2.39 3.48-2.69 3.24-2.98 2.98-3.24 2.69-3.48 2.39-3.68 2.05-3.86 1.7-3.99 1.34-4.11 0.96-4.17 0.59-4.21 0.19h-45.63l-4.22-0.19-4.17-0.59-4.1-0.96-4-1.34-3.86-1.7-3.68-2.05-3.47-2.39-3.25-2.69-2.98-2.98-2.69-3.24-2.38-3.48-2.05-3.68-1.71-3.86-1.34-3.99-0.96-4.11-0.58-4.17-0.2-4.21v-45.64l0.2-4.21 0.58-4.17 0.96-4.1 1.34-4 1.71-3.86 2.05-3.68 2.38-3.48 2.69-3.24 2.98-2.98 3.25-2.69 3.47-2.38 3.68-2.05 3.86-1.71 4-1.34 4.1-0.96 4.17-0.58 4.22-0.2"/>

    <!-- Filled quatrefoil shape at top left -->
    <path class="s1" d="m135.53 363.69c29.96 0 59.63-5.9 87.31-17.36 27.69-11.47 52.84-28.28 74.03-49.46 21.18-21.19 37.99-46.34 49.45-74.03 11.47-27.68 17.37-57.35 17.37-87.31 0 29.96 5.9 59.63 17.37 87.31 11.47 27.69 28.27 52.84 49.46 74.03 21.19 21.18 46.34 37.99 74.02 49.46 27.68 11.46 57.35 17.36 87.32 17.36-29.97 0-59.64 5.9-87.32 17.37-27.68 11.47-52.83 28.27-74.02 49.46-21.19 21.19-37.99 46.34-49.46 74.02-11.47 27.68-17.37 57.35-17.37 87.32 0-29.97-5.9-59.64-17.36-87.32-11.47-27.68-28.28-52.83-49.46-74.02-21.19-21.19-46.34-37.99-74.03-49.46-27.68-11.47-57.35-17.37-87.31-17.37z"/>

    <!-- Original stroked paths -->
    <path fill-rule="evenodd" class="s0" d="m135.53 363.69c29.96 0 59.63-5.9 87.31-17.36 27.69-11.47 52.84-28.28 74.03-49.46 21.18-21.19 37.99-46.34 49.45-74.03 11.47-27.68 17.37-57.35 17.37-87.31"/>
    <path fill-rule="evenodd" class="s0" d="m363.69 135.53c0 29.96 5.9 59.63 17.37 87.31 11.47 27.69 28.27 52.84 49.46 74.03 21.19 21.18 46.34 37.99 74.02 49.46 27.68 11.46 57.35 17.36 87.32 17.36"/>
    <path fill-rule="evenodd" class="s0" d="m363.69 591.86c0-29.97-5.9-59.64-17.36-87.32-11.47-27.68-28.28-52.83-49.46-74.02-21.19-21.19-46.34-37.99-74.03-49.46-27.68-11.47-57.35-17.37-87.31-17.37"/>
    <path fill-rule="evenodd" class="s0" d="m591.86 363.69c-29.97 0-59.64 5.9-87.32 17.37-27.68 11.47-52.83 28.27-74.02 49.46-21.19 21.19-37.99 46.34-49.46 74.02-11.47 27.68-17.37 57.35-17.37 87.32"/>
    <path fill-rule="evenodd" class="s0" d="m500.59 272.43h319.43"/>
    <path fill-rule="evenodd" class="s0" d="m820.02 272.43v410.69"/>
    <path fill-rule="evenodd" class="s0" d="m683.12 820.02h-410.69"/>
    <path fill-rule="evenodd" class="s0" d="m272.43 820.02v-319.43"/>
    <path fill-rule="evenodd" class="s0" d="m797.21 751.57h45.63l4.21 0.2 4.17 0.58 4.11 0.96 3.99 1.34 3.86 1.71 3.68 2.05 3.48 2.38 3.24 2.69 2.98 2.98 2.69 3.24 2.39 3.48 2.05 3.68 1.7 3.86 1.34 4 0.96 4.1 0.59 4.17 0.19 4.21v45.64l-0.19 4.21-0.59 4.17-0.96 4.11-1.34 3.99-1.7 3.86-2.05 3.68-2.39 3.48-2.69 3.24-2.98 2.98-3.24 2.69-3.48 2.39-3.68 2.05-3.86 1.7-3.99 1.34-4.11 0.96-4.17 0.59-4.21 0.19h-45.63l-4.22-0.19-4.17-0.59-4.1-0.96-4-1.34-3.86-1.7-3.68-2.05-3.47-2.39-3.25-2.69-2.98-2.98-2.69-3.24-2.38-3.48-2.05-3.68-1.71-3.86-1.34-3.99-0.96-4.11-0.58-4.17-0.2-4.21v-45.64l0.2-4.21 0.58-4.17 0.96-4.1 1.34-4 1.71-3.86 2.05-3.68 2.38-3.48 2.69-3.24 2.98-2.98 3.25-2.69 3.47-2.38 3.68-2.05 3.86-1.71 4-1.34 4.1-0.96 4.17-0.58 4.22-0.2"/>
  </g>
</svg>
