<svg version="1.2" xmlns="http://www.w3.org/2000/svg" viewBox="0 0 1024 1024" width="1024" height="1024">
	<style>
		.s0 { fill: none;stroke: #000;stroke-linecap: round;stroke-linejoin: round;stroke-width: 50 } 
	</style>
	<g id="Layer copy 8">
		<path fill-rule="evenodd" class="s0" d="m781.8 135.53h150.59l6.05 0.37 5.97 1.09 5.78 1.8 5.53 2.49 5.19 3.13 4.77 3.74 4.28 4.29 3.74 4.77 3.14 5.19 2.49 5.53 1.8 5.78 1.09 5.97 0.37 6.05v150.58l-0.37 6.05-1.09 5.97-1.8 5.78-2.49 5.53-3.14 5.19-3.74 4.77-4.28 4.29-4.77 3.73-5.19 3.14-5.53 2.49-5.78 1.8-5.97 1.09-6.05 0.37h-150.59l-6.05-0.37-5.96-1.09-5.79-1.8-5.52-2.49-5.19-3.14-4.77-3.73-4.29-4.29-3.74-4.77-3.13-5.19-2.49-5.53-1.8-5.78-1.1-5.97-0.36-6.05v-150.58l0.36-6.05 1.1-5.97 1.8-5.78 2.49-5.53 3.13-5.19 3.74-4.77 4.29-4.29 4.77-3.74 5.19-3.13 5.52-2.49 5.79-1.8 5.96-1.09 6.05-0.37"/>
		<path fill-rule="evenodd" class="s0" d="m731.61 261.02h-501.96"/>
		<path fill-rule="evenodd" class="s0" d="m731.61 512h-501.96"/>
		<path fill-rule="evenodd" class="s0" d="m731.61 762.98h-439.22"/>
		<path fill-rule="evenodd" class="s0" d="m731.61 762.98c33.28 0 65.2-13.22 88.73-36.76 23.54-23.53 36.76-55.45 36.76-88.73 0-33.28-13.22-65.2-36.76-88.73-23.53-23.54-55.45-36.76-88.73-36.76"/>
		<path fill-rule="evenodd" class="s0" d="m229.65 261.02c-33.29 0-65.2 13.22-88.74 36.76-23.53 23.53-36.75 55.45-36.75 88.73 0 33.28 13.22 65.2 36.75 88.73 23.54 23.54 55.45 36.76 88.74 36.76"/>
		<path fill-rule="evenodd" class="s0" d="m166.9 888.47c-69.39 0-125.49-56.09-125.49-125.49 0-69.4 56.1-125.49 125.49-125.49 69.4 0 125.49 56.09 125.49 125.49 0 69.4-56.09 125.49-125.49 125.49z"/>
	</g>
</svg>