<svg version="1.2" xmlns="http://www.w3.org/2000/svg" viewBox="0 0 1024 1024" width="1024" height="1024"><style>.a{fill:none;stroke:#FFF;stroke-width:50}</style><path class="a" d="m304.9 98.2h413.6c27.2 0 54.1 5.3 79.2 15.7 25 10.4 47.8 25.7 67 44.9 19.3 19.2 34.5 42 44.9 67.1 10.4 25.1 15.7 52 15.7 79.1v413.6c0 27.2-5.3 54.1-15.7 79.2-10.4 25.1-25.6 47.9-44.9 67.1-19.2 19.2-42 34.4-67 44.8-25.1 10.4-52 15.8-79.2 15.8h-413.6c-27.2 0-54.1-5.4-79.2-15.8-25.1-10.4-47.9-25.6-67.1-44.8-19.2-19.2-34.4-42-44.8-67.1-10.4-25.1-15.7-52-15.7-79.2v-413.6c0-27.1 5.3-54 15.7-79.1 10.4-25.1 25.6-47.9 44.8-67.1 19.2-19.2 42-34.5 67.1-44.9 25.1-10.4 52-15.7 79.2-15.7z"/><path fill-rule="evenodd" class="a" d="m511.7 98.2v827.3"/><path fill-rule="evenodd" class="a" d="m594.4 563.5h248.2"/><path fill-rule="evenodd" class="a" d="m594.4 460.1h248.2"/><path fill-rule="evenodd" class="a" d="m304.9 739.3v-248.2"/><path fill-rule="evenodd" class="a" d="m98.1 677.3v-330.9"/><path fill-rule="evenodd" class="a" d="m98.1 677.3v-330.9"/><path fill-rule="evenodd" class="a" d="m429 615.2h-248.2"/><path fill-rule="evenodd" class="a" d="m429 305h-248.2"/></svg>