<svg version="1.2" xmlns="http://www.w3.org/2000/svg" viewBox="0 0 512 512" width="512" height="512">
	<style>
		.s0 { fill: none;stroke: #000;stroke-width: 25 } 
		.s1 { fill: #000 }
	</style>
	<g>
		<!-- Filled left rounded square -->
		<path class="s1" d="m77.65 57.8h25.55c3.35 0 6.68 0.66 9.78 1.94 3.09 1.28 5.91 3.17 8.28 5.54 2.37 2.37 4.26 5.19 5.54 8.29 1.28 3.09 1.95 6.42 1.95 9.77v25.55c0 3.35-0.67 6.67-1.95 9.77-1.28 3.1-3.17 5.92-5.54 8.29-2.37 2.37-5.19 4.26-8.28 5.54-3.1 1.28-6.43 1.94-9.78 1.94h-25.55c-3.35 0-6.67-0.66-9.77-1.94-3.1-1.28-5.92-3.17-8.29-5.54-2.37-2.37-4.26-5.19-5.54-8.29-1.28-3.1-1.94-6.42-1.94-9.77v-25.55c0-3.35 0.66-6.68 1.94-9.77 1.28-3.1 3.17-5.92 5.54-8.29 2.37-2.37 5.19-4.26 8.29-5.54 3.1-1.28 6.42-1.94 9.77-1.94z"/>
		
		<!-- Filled right rounded square -->
		<path class="s1" d="m409.75 57.8h25.55c3.35 0 6.68 0.66 9.78 1.94 3.09 1.28 5.91 3.17 8.28 5.54 2.38 2.37 4.26 5.19 5.54 8.29 1.28 3.09 1.95 6.42 1.95 9.77v25.55c0 3.35-0.67 6.67-1.95 9.77-1.28 3.1-3.16 5.92-5.54 8.29-2.37 2.37-5.19 4.26-8.28 5.54-3.1 1.28-6.43 1.94-9.78 1.94h-25.55c-3.35 0-6.67-0.66-9.77-1.94-3.1-1.28-5.92-3.17-8.29-5.54-2.37-2.37-4.25-5.19-5.54-8.29-1.28-3.1-1.94-6.42-1.94-9.77v-25.55c0-3.35 0.66-6.68 1.94-9.77 1.29-3.1 3.17-5.92 5.54-8.29 2.37-2.37 5.19-4.26 8.29-5.54 3.1-1.28 6.42-1.94 9.77-1.94z"/>
		
		<!-- Original stroked paths -->
		<path class="s0" d="m77.65 57.8h25.55c3.35 0 6.68 0.66 9.78 1.94 3.09 1.28 5.91 3.17 8.28 5.54 2.37 2.37 4.26 5.19 5.54 8.29 1.28 3.09 1.95 6.42 1.95 9.77v25.55c0 3.35-0.67 6.67-1.95 9.77-1.28 3.1-3.17 5.92-5.54 8.29-2.37 2.37-5.19 4.26-8.28 5.54-3.1 1.28-6.43 1.94-9.78 1.94h-25.55c-3.35 0-6.67-0.66-9.77-1.94-3.1-1.28-5.92-3.17-8.29-5.54-2.37-2.37-4.26-5.19-5.54-8.29-1.28-3.1-1.94-6.42-1.94-9.77v-25.55c0-3.35 0.66-6.68 1.94-9.77 1.28-3.1 3.17-5.92 5.54-8.29 2.37-2.37 5.19-4.26 8.29-5.54 3.1-1.28 6.42-1.94 9.77-1.94z"/>
		<path class="s0" d="m128.75 96.11h255.46"/>
		<path class="s0" d="m409.75 57.8h25.55c3.35 0 6.68 0.66 9.78 1.94 3.09 1.28 5.91 3.17 8.28 5.54 2.38 2.37 4.26 5.19 5.54 8.29 1.28 3.09 1.95 6.42 1.95 9.77v25.55c0 3.35-0.67 6.67-1.95 9.77-1.28 3.1-3.16 5.92-5.54 8.29-2.37 2.37-5.19 4.26-8.28 5.54-3.1 1.28-6.43 1.94-9.78 1.94h-25.55c-3.35 0-6.67-0.66-9.77-1.94-3.1-1.28-5.92-3.17-8.29-5.54-2.37-2.37-4.25-5.19-5.54-8.29-1.28-3.1-1.94-6.42-1.94-9.77v-25.55c0-3.35 0.66-6.68 1.94-9.77 1.29-3.1 3.17-5.92 5.54-8.29 2.37-2.37 5.19-4.26 8.29-5.54 3.1-1.28 6.42-1.94 9.77-1.94z"/>
		<path class="s0" d="m256.48 96.11v79.2"/>
		<path class="s0" d="m256.48 400.12v79.19"/>
		<path class="s0" d="m358.66 287.71c0-27.1-10.77-53.09-29.93-72.25-19.16-19.17-45.15-29.93-72.25-29.93-27.11 0-53.1 10.76-72.26 29.93-19.16 19.16-29.93 45.15-29.93 72.25 0 27.1 10.77 53.09 29.93 72.26 19.16 19.16 45.15 29.93 72.26 29.93 27.1 0 53.09-10.77 72.25-29.93 19.16-19.17 29.93-45.16 29.93-72.26z"/>
		<path class="s0" d="m328.73 359.96l93.8 93.81"/>
	</g>
</svg>