<svg version="1.2" xmlns="http://www.w3.org/2000/svg" viewBox="0 0 1024 1024" width="1024" height="1024">
	<style>
		.s0 { fill: none;stroke: #ff9850;stroke-linecap: round;stroke-linejoin: round;stroke-width: 25 } 
	</style>
	<g id="Layer copy 12">
		<path fill-rule="evenodd" class="s0" d="m256.54 646.45c-74.36 0-134.46-60.1-134.46-134.45 0-74.35 60.1-134.45 134.46-134.45 74.35 0 134.45 60.1 134.45 134.45 0 74.35-60.1 134.45-134.45 134.45z"/>
		<path fill-rule="evenodd" class="s0" d="m417.88 512h242.02"/>
		<path fill-rule="evenodd" class="s0" d="m525.45 512v-134.45"/>
		<path fill-rule="evenodd" class="s0" d="m659.9 243.09c-17.66 0-35.14 3.48-51.45 10.24-16.32 6.75-31.14 16.66-43.62 29.14-12.49 12.49-22.39 27.31-29.15 43.62-6.76 16.32-10.23 33.8-10.23 51.46"/>
		<path fill-rule="evenodd" class="s0" d="m525.45 512v134.45"/>
		<path fill-rule="evenodd" class="s0" d="m525.45 646.45c0 17.66 3.47 35.14 10.23 51.46 6.76 16.31 16.66 31.13 29.15 43.62 12.48 12.48 27.3 22.39 43.62 29.14 16.31 6.76 33.79 10.24 51.45 10.24"/>
		<path fill-rule="evenodd" class="s0" d="m659.9 243.09"/>
		<path fill-rule="evenodd" class="s0" d="m659.9 780.91"/>
		<path fill-rule="evenodd" class="s0" d="m794.35 350.65c-59.48 0-107.56-48.08-107.56-107.56 0-59.48 48.08-107.56 107.56-107.56 59.49 0 107.57 48.08 107.57 107.56 0 59.48-48.08 107.56-107.57 107.56z"/>
		<path fill-rule="evenodd" class="s0" d="m794.35 619.56c-59.48 0-107.56-48.08-107.56-107.56 0-59.48 48.08-107.56 107.56-107.56 59.49 0 107.57 48.08 107.57 107.56 0 59.48-48.08 107.56-107.57 107.56z"/>
		<path fill-rule="evenodd" class="s0" d="m794.35 888.47c-59.48 0-107.56-48.08-107.56-107.56 0-59.48 48.08-107.56 107.56-107.56 59.49 0 107.57 48.08 107.57 107.56 0 59.48-48.08 107.56-107.57 107.56z"/>
	</g>
</svg>